<?xml version="1.0" standalone="no"?>
<!DOCTYPE svg PUBLIC "-//W3C//DTD SVG 20010904//EN"
 "http://www.w3.org/TR/2001/REC-SVG-20010904/DTD/svg10.dtd">
<svg version="1.0" xmlns="http://www.w3.org/2000/svg"
 width="512.000000pt" height="512.000000pt" viewBox="0 0 512.000000 512.000000"
 preserveAspectRatio="xMidYMid meet">
<metadata>
Created by potrace 1.11, written by Peter Selinger 2001-2013
</metadata>
<g transform="translate(0.000000,512.000000) scale(0.100000,-0.100000)"
fill="#000000" stroke="none">
<path d="M1432 5094 c-29 -14 -64 -40 -77 -58 -55 -72 -55 -75 -55 -494 l0
-388 28 -55 c33 -66 93 -113 162 -128 66 -14 274 -14 340 0 69 15 129 62 163
129 l28 55 -3 401 -3 401 -30 49 c-19 30 -49 60 -79 79 l-49 30 -186 3 c-184
3 -187 3 -239 -24z"/>
<path d="M3332 5094 c-29 -14 -64 -40 -77 -58 -55 -72 -55 -75 -55 -494 l0
-388 28 -55 c33 -66 93 -113 162 -128 66 -14 274 -14 340 0 69 15 129 62 163
129 l28 55 -3 401 -3 401 -30 49 c-19 30 -49 60 -79 79 l-49 30 -186 3 c-184
3 -187 3 -239 -24z"/>
<path d="M695 4703 c-55 -8 -149 -35 -209 -60 -183 -77 -355 -252 -429 -436
-60 -150 -58 -64 -55 -1887 3 -1875 -4 -1699 83 -1875 79 -162 198 -280 360
-360 176 -87 -21 -80 2115 -80 2136 0 1939 -7 2115 80 162 80 281 198 360 360
87 176 80 0 83 1875 3 1823 5 1737 -55 1887 -74 184 -246 359 -429 436 -107
45 -173 58 -326 64 l-148 6 0 -274 c0 -304 -8 -359 -61 -460 -44 -81 -131
-161 -226 -207 l-78 -37 -235 0 -235 0 -78 37 c-144 69 -250 202 -277 347 -6
29 -10 175 -10 322 l0 269 -350 0 -350 0 0 -272 c0 -303 -8 -358 -61 -459 -44
-81 -131 -161 -226 -207 l-78 -37 -235 0 -235 0 -78 37 c-144 69 -250 202
-277 347 -6 29 -10 175 -10 322 l0 269 -167 -1 c-93 -1 -181 -4 -198 -6z
m3900 -1391 c65 -35 111 -103 120 -175 3 -28 5 -585 3 -1237 l-3 -1185 -23
-55 c-48 -117 -146 -208 -259 -241 -72 -21 -3674 -21 -3746 0 -113 33 -211
124 -259 241 l-23 55 -3 1185 c-2 652 0 1209 3 1237 9 72 55 140 120 175 l50
28 1985 0 1985 0 50 -28z"/>
<path d="M912 2924 c-58 -29 -105 -84 -123 -143 -6 -23 -9 -132 -7 -292 l3
-256 30 -49 c19 -30 49 -60 79 -79 l49 -30 277 0 277 0 49 30 c30 19 60 49 79
79 l30 49 0 277 0 277 -30 49 c-19 30 -49 60 -79 79 l-49 30 -266 3 -266 3
-53 -27z"/>
<path d="M2242 2924 c-58 -29 -105 -84 -123 -143 -6 -23 -9 -132 -7 -292 l3
-256 30 -49 c19 -30 49 -60 79 -79 l49 -30 277 0 277 0 49 30 c30 19 60 49 79
79 l30 49 0 277 0 277 -30 49 c-19 30 -49 60 -79 79 l-49 30 -266 3 -266 3
-53 -27z"/>
<path d="M3572 2924 c-58 -29 -105 -84 -123 -143 -6 -23 -9 -132 -7 -292 l3
-256 30 -49 c19 -30 49 -60 79 -79 l49 -30 277 0 277 0 49 30 c30 19 60 49 79
79 l30 49 0 277 0 277 -30 49 c-19 30 -49 60 -79 79 l-49 30 -266 3 -266 3
-53 -27z"/>
<path d="M912 1594 c-58 -29 -105 -84 -123 -143 -6 -23 -9 -132 -7 -292 l3
-256 30 -49 c19 -30 49 -60 79 -79 l49 -30 277 0 277 0 49 30 c30 19 60 49 79
79 l30 49 0 277 0 277 -30 49 c-19 30 -49 60 -79 79 l-49 30 -266 3 -266 3
-53 -27z"/>
<path d="M2242 1594 c-58 -29 -105 -84 -123 -143 -6 -23 -9 -132 -7 -292 l3
-256 30 -49 c19 -30 49 -60 79 -79 l49 -30 277 0 277 0 49 30 c30 19 60 49 79
79 l30 49 0 277 0 277 -30 49 c-19 30 -49 60 -79 79 l-49 30 -266 3 -266 3
-53 -27z"/>
<path d="M3572 1594 c-58 -29 -105 -84 -123 -143 -6 -23 -9 -132 -7 -292 l3
-256 30 -49 c19 -30 49 -60 79 -79 l49 -30 277 0 277 0 49 30 c30 19 60 49 79
79 l30 49 0 277 0 277 -30 49 c-19 30 -49 60 -79 79 l-49 30 -266 3 -266 3
-53 -27z"/>
</g>
</svg>
